<svg width="341" height="101" viewBox="0 0 341 101" fill="none" xmlns="http://www.w3.org/2000/svg">
<rect width="341" height="101" rx="13" fill="#264653"/>
<path d="M143.793 36.5522C142.946 36.5522 142.285 36.9511 141.829 37.755L131.248 59.5737L120.361 37.7357C119.909 36.9511 119.254 36.553 118.404 36.553C117.784 36.553 117.255 36.7671 116.83 37.1921C116.405 37.6179 116.19 38.1477 116.19 38.7683V64.1552C116.19 64.7751 116.405 65.3056 116.83 65.7307C117.255 66.1557 117.784 66.3713 118.404 66.3713C119.023 66.3713 119.552 66.1557 119.978 65.7307C120.403 65.3056 120.62 64.7751 120.62 64.1552V46.9935L129.061 63.9342C129.484 64.8059 130.169 65.2463 131.101 65.2463C131.893 65.2463 132.531 64.879 133.009 64.1483L141.578 46.6708V64.1545C141.578 64.7743 141.792 65.3048 142.218 65.7299C142.642 66.1549 143.171 66.3705 143.793 66.3705C144.389 66.3705 144.908 66.158 145.346 65.7345C145.783 65.3095 146.009 64.7774 146.009 64.1545V38.7675C146.009 38.1469 145.794 37.6172 145.37 37.1913C144.945 36.7671 144.415 36.5522 143.793 36.5522Z" fill="white"/>
<path d="M174.699 38.4624C172.534 37.1967 170.028 36.5522 167.256 36.5522H160.666C160.067 36.5522 159.555 36.7609 159.142 37.1712C158.727 37.5855 158.514 38.1213 158.514 38.7696V64.1509C158.514 64.7737 158.724 65.3034 159.137 65.7292C159.55 66.1542 160.064 66.3713 160.666 66.3713H167.256C170.031 66.3713 172.536 65.7261 174.699 64.4612C176.864 63.1939 178.577 61.4047 179.783 59.1481C180.985 56.8923 181.6 54.3015 181.6 51.4452C181.6 48.5866 180.99 46.0028 179.783 43.7608C178.577 41.5135 176.864 39.7296 174.699 38.4624ZM177.437 51.4414C177.437 53.5363 177.003 55.4441 176.142 57.1063C175.28 58.7647 174.067 60.075 172.529 60.9935C170.987 61.9159 169.212 62.3832 167.252 62.3832H162.818V40.5357H167.252C169.211 40.5357 170.987 41.0023 172.529 41.9254C174.067 42.8462 175.283 44.1489 176.142 45.7949C177.003 47.4456 177.437 49.3457 177.437 51.4414Z" fill="white"/>
<path d="M212.041 40.6865C212.705 40.6865 213.255 40.5017 213.669 40.1267C214.091 39.7509 214.302 39.255 214.302 38.6567C214.302 38.0322 214.093 37.5194 213.675 37.1328C213.258 36.7463 212.711 36.5522 212.044 36.5522H194.478C193.836 36.5522 193.289 36.7586 192.848 37.1713C192.404 37.5833 192.181 38.1215 192.181 38.7676V64.1552C192.181 64.775 192.404 65.3056 192.846 65.7306C193.286 66.1557 193.836 66.3713 194.478 66.3713H212.047C212.711 66.3713 213.261 66.1757 213.677 65.7922C214.093 65.4018 214.305 64.8898 214.305 64.2684C214.305 63.6662 214.093 63.1742 213.675 62.7953C213.258 62.4242 212.711 62.2386 212.047 62.2386H196.781V53.3988H207.654C208.295 53.3988 208.836 53.2047 209.263 52.8189C209.698 52.4308 209.914 51.9296 209.914 51.3274C209.914 50.7299 209.698 50.2263 209.263 49.8382C208.837 49.4547 208.295 49.2568 207.654 49.2568H196.781V40.6834H212.041V40.6865Z" fill="white"/>
<path d="M246.048 38.6201C246.048 38.0535 245.868 37.5662 245.509 37.1651C245.139 36.7586 244.645 36.5522 244.042 36.5522C243.385 36.5522 242.846 36.7663 242.442 37.1974L234.179 48.1012L226.264 37.2228C225.936 36.7771 225.391 36.5522 224.651 36.5522C224.015 36.5522 223.502 36.7717 223.122 37.2051C222.753 37.6278 222.565 38.1421 222.565 38.7302C222.565 39.2399 222.712 39.6857 222.994 40.0506L231.194 51.3263L222.507 62.7906C222.168 63.2356 222 63.746 222 64.3026C222 64.8669 222.182 65.3543 222.539 65.7554C222.905 66.1619 223.412 66.3713 224.048 66.3713C224.647 66.3713 225.169 66.1542 225.599 65.7292L234.096 54.5559L242.092 65.5552C242.52 66.0949 243.1 66.3713 243.814 66.3713C244.449 66.3713 244.962 66.1511 245.341 65.7154C245.713 65.2896 245.899 64.7907 245.899 64.2256C245.899 63.726 245.743 63.2448 245.434 62.8014L237.081 51.297L245.59 40.0406C245.894 39.5725 246.048 39.0952 246.048 38.6201Z" fill="white"/>
<path d="M267.865 38.0376C267.492 37.0528 266.782 36.5522 265.751 36.5522C264.774 36.5522 264.068 37.0451 263.644 38.0261L252.99 63.1942C252.85 63.5453 252.781 63.871 252.781 64.1552C252.781 64.7481 252.99 65.2679 253.402 65.7037C253.818 66.1449 254.352 66.3713 254.984 66.3713C255.414 66.3713 255.821 66.2504 256.191 66.0078C256.562 65.7722 256.849 65.4357 257.051 65.006L259.141 59.9224H272.386L274.441 65.003C274.614 65.4319 274.896 65.7684 275.286 66.0109C275.67 66.2504 276.081 66.3713 276.511 66.3713C277.137 66.3713 277.673 66.1557 278.103 65.7306C278.533 65.3056 278.752 64.7866 278.752 64.1914C278.752 63.9349 278.687 63.6316 278.542 63.2643L267.865 38.0376ZM270.847 56.1624H260.698L265.825 43.7935L270.847 56.1624Z" fill="white"/>
<path d="M316.568 37.1913C316.13 36.7663 315.584 36.5522 314.945 36.5522C314.068 36.5522 313.388 36.9511 312.914 37.755L301.99 59.5737L290.752 37.7357C290.287 36.9511 289.61 36.553 288.732 36.553C288.093 36.553 287.546 36.7671 287.107 37.1921C286.668 37.6179 286.448 38.1477 286.448 38.7683V64.1552C286.448 64.7751 286.668 65.3056 287.107 65.7307C287.546 66.1557 288.093 66.3713 288.732 66.3713C289.374 66.3713 289.921 66.1557 290.359 65.7307C290.798 65.3056 291.02 64.7751 291.02 64.1552V46.9935L299.733 63.9342C300.169 64.8059 300.878 65.2463 301.837 65.2463C302.657 65.2463 303.316 64.879 303.808 64.1483L312.654 46.6708V64.1545C312.654 64.7743 312.879 65.3048 313.318 65.7299C313.756 66.1549 314.302 66.3705 314.945 66.3705C315.557 66.3705 316.094 66.158 316.548 65.7345C316.998 65.3095 317.229 64.7774 317.229 64.1545V38.7675C317.229 38.1477 317.007 37.6172 316.568 37.1913Z" fill="white"/>
<path d="M44.2182 46.2881L58.5887 35.416V69.3293C58.5887 70.3499 59.4296 71.1808 60.4579 71.1808C61.4861 71.1808 62.3238 70.3506 62.3238 69.3293V31.672C62.3238 30.9642 61.928 30.3285 61.2862 30.0133C60.6452 29.6989 59.8941 29.7701 59.3242 30.2015L43.0846 42.4867L26.845 30.2022C26.275 29.7701 25.5247 29.6974 24.8853 30.0141C24.2443 30.3285 23.8477 30.9642 23.8477 31.672V69.3277C23.8477 70.3452 24.6838 71.1808 25.7113 71.1808C26.7411 71.1808 27.5796 70.346 27.5796 69.3277V35.416L41.9509 46.2881C42.6208 46.7953 43.553 46.7953 44.2182 46.2881Z" fill="white"/>
<path d="M43.0591 17.3142C42.9773 17.3142 42.8947 17.3196 42.7965 17.3352C42.7746 17.3375 42.7536 17.3406 42.7318 17.3453C42.6468 17.3616 42.5673 17.381 42.4925 17.4043C42.4769 17.4074 42.4613 17.4152 42.4473 17.4199L42.4239 17.4253C42.3685 17.4463 42.3124 17.4712 42.2586 17.4952L42.2384 17.5053C42.2165 17.5154 42.1955 17.5255 42.1737 17.5364C42.1152 17.5652 42.0599 17.6001 41.9975 17.6429C41.9656 17.6638 41.9344 17.691 41.9016 17.7136C41.8642 17.7431 41.8307 17.7718 41.7956 17.8021C41.7528 17.8441 41.7161 17.8806 41.6818 17.9187C41.6475 17.9568 41.6156 17.9948 41.5829 18.0345L41.579 18.0461C41.5602 18.0671 41.5415 18.0912 41.526 18.116C41.4831 18.1782 41.441 18.2427 41.4059 18.3095C41.3981 18.3266 41.3934 18.3429 41.388 18.3569L41.3763 18.3724C41.335 18.4595 41.3054 18.5403 41.282 18.6141L41.2469 18.7198C41.1534 19.0173 41.1378 19.3289 41.1962 19.6273V30.327C41.1962 31.351 42.0318 32.1839 43.0576 32.1839C44.0857 32.1839 44.9228 31.3518 44.9228 30.327V21.0872C50.0048 21.3949 54.7485 22.9263 58.8656 25.3877C63.1385 27.9549 66.7544 31.5204 69.3773 35.7518C69.4069 35.8 69.4388 35.8435 69.4653 35.8924C69.4731 35.9088 69.4833 35.9235 69.4973 35.9437C72.3454 40.6366 73.9838 46.1368 73.9838 51.9929C73.9838 68.4469 61.2063 81.9771 44.8916 82.8131V76.905C44.8916 75.8825 44.0514 75.0442 43.0256 75.0442C41.9999 75.0442 41.1619 75.8817 41.1619 76.905V84.7105C41.1619 85.7361 41.9991 86.5714 43.0256 86.5714H43.3015C52.5567 86.5714 61.2203 82.9708 67.6999 76.4342C74.1561 69.9223 77.7142 61.2435 77.7142 51.9937C77.7135 32.877 62.1658 17.3142 43.0591 17.3142Z" fill="white"/>
<path d="M41.1335 68.3844C41.1335 69.3948 41.9297 70.219 42.9125 70.219C43.8917 70.219 44.6908 69.3956 44.6908 68.3844V61.9491H50.9266C51.9058 61.9491 52.7049 61.1279 52.7049 60.1198C52.7049 59.1079 51.9058 58.286 50.9266 58.286H44.6908V51.8491C44.6908 50.8402 43.8917 50.019 42.9125 50.019C41.9304 50.019 41.1335 50.8395 41.1335 51.8491V58.286H34.2839C33.3047 58.286 32.5049 59.1071 32.5049 60.1198C32.5049 61.1271 33.304 61.9491 34.2839 61.9491H41.1335V68.3844Z" fill="white"/>
<path d="M95.9916 88.4951C94.9267 88.4951 94.0667 87.5823 94.0667 86.4571V17.4284C94.0659 16.3033 94.9259 15.3904 95.9916 15.3904C97.0528 15.3904 97.9143 16.3033 97.9143 17.4284V86.4571C97.9143 87.5823 97.0528 88.4951 95.9916 88.4951Z" fill="white"/>
</svg>
